####
#
# OBJ File Generated by Meshlab
#
####
# Object bridge_simple.obj
#
# Vertices: 151
# Faces: 298
#
####
vn 1.262599 1.242138 -1.530813
v 867.338806 85.500786 2.322587
vn -1.153113 1.097198 1.490057
v 19.665956 85.500786 154.722595
vn 2.133779 -2.967314 0.076214
v 867.338806 1.846273 83.656036
vn 1.262927 1.251381 1.531978
v 867.338806 85.500786 154.722595
vn -1.336692 1.352434 -1.550689
v 19.665956 85.500786 2.322587
vn 0.070836 1.379811 -2.600094
v 373.765137 85.500786 29.328278
vn -0.121452 1.785616 2.829867
v 674.273682 85.500786 136.765625
vn -0.260708 1.343234 -2.561652
v 623.563782 85.500786 23.868788
vn -0.243230 1.727215 2.794615
v 705.961365 85.500786 139.282318
vn 1.845685 -1.136865 2.535733
v 867.338806 28.654490 148.824738
vn 1.662037 -2.222738 1.473334
v 867.338806 9.781862 133.402008
vn 2.002758 -1.320413 -2.524548
v 867.338806 23.999016 11.137951
vn 1.636267 -2.442241 -1.050359
v 867.338806 5.364087 29.196234
vn -1.277542 -2.318918 -0.852287
v 19.665956 3.529319 33.552883
vn -1.328225 -2.282010 1.028132
v 19.665956 5.593729 124.403465
vn -1.172785 -1.317733 1.939150
v 19.665956 20.184362 143.795517
vn -1.520993 -1.938066 -1.786162
v 19.665956 12.952934 19.321056
vn -1.980294 -0.914618 -2.742587
v 19.665956 37.484821 5.909429
vn -0.008101 -5.334679 1.912258
v 388.054993 55.635361 99.218040
vn 0.034102 -4.933766 2.961643
v 480.991028 62.470501 110.789886
vn -0.568504 -4.355416 3.799551
v 591.974854 63.681370 120.329613
vn 0.748230 -4.967701 -2.571129
v 424.206329 58.958969 52.015106
vn -0.428587 -5.162095 -2.103475
v 589.923279 50.862495 53.747227
vn 0.077016 0.831679 -2.099156
v 444.357544 85.500786 30.365280
vn -0.207192 1.687140 2.776632
v 578.163452 85.500786 130.387939
vn 0.225203 2.091643 -2.952353
v 209.953049 85.500786 20.062275
vn 0.162075 1.913475 2.887000
v 265.465332 85.500786 132.922058
vn 0.180321 1.367275 -2.586166
v 287.816284 85.500786 25.420176
vn -0.315315 -4.210883 -4.116455
v 548.663574 66.896957 37.080639
vn 0.208574 1.134884 2.405939
v 368.555115 85.500786 127.925957
vn -0.145231 1.434559 -2.632049
v 502.945831 85.500786 29.590714
vn -0.321769 1.646439 -2.742893
v 678.600586 85.500786 19.980947
vn -1.623584 -5.192976 2.202397
v 847.453491 11.080552 125.210442
vn 1.098771 -4.517287 2.872515
v 69.430046 20.306993 126.011139
vn 1.040387 -3.516115 4.250563
v 101.134132 35.398796 132.796783
vn -1.144254 -4.456085 -3.165479
v 710.645874 40.437660 38.843384
vn 0.314539 2.135072 2.958872
v 160.279160 85.500786 141.082184
vn -0.578378 -3.634654 4.656446
v 643.632324 62.917187 126.435600
vn -0.125361 1.791574 -2.833898
v 554.311157 85.500786 27.852858
vn 1.129191 -5.046761 2.289578
v 123.587776 28.499990 116.886566
vn 0.460766 2.444245 -3.024731
v 65.696831 85.500786 7.058448
vn 0.069078 -4.892467 -2.938889
v 388.494324 60.963326 46.465546
vn -1.322500 -5.808665 -1.207629
v 729.504456 33.027584 47.585793
vn 0.097951 1.366502 -2.590132
v 339.485901 85.500786 28.137589
vn -0.051525 1.321233 2.559847
v 468.212921 85.500786 126.845016
vn -0.005849 1.287457 -2.533062
v 585.336487 85.500786 26.256695
vn -0.377594 2.538161 3.059118
v 817.434753 85.500786 149.620239
vn -0.474938 2.109176 2.924979
v 769.167114 85.500786 144.906250
vn 1.434488 -6.061752 0.041510
v 160.147903 36.843403 83.580803
vn 0.000000 6.283185 0.000000
v 192.575531 85.500786 98.358490
vn 1.088489 -3.841737 3.683065
v 153.069443 42.958565 128.163162
vn -1.130339 -5.652409 -1.667560
v 780.528320 23.123819 46.595924
vn 0.000000 6.283185 0.000000
v 125.290474 85.500786 53.281540
vn -3.141593 3.141593 0.000000
v 19.665956 85.500786 67.658134
vn -0.643788 -4.579961 3.139362
v 675.546082 45.966824 116.425552
vn 0.603049 -5.916013 1.268057
v 247.207245 48.245724 92.396927
vn -1.102830 -3.944321 -4.290851
v 749.734619 37.472038 31.523037
vn 0.000000 6.283185 0.000000
v 60.253555 85.500786 103.862396
vn 6.283185 0.000000 0.000000
v 867.338806 46.070530 75.942528
vn -6.283185 -0.000000 -0.000000
v 19.665960 39.661892 95.071335
vn 0.028317 -4.941853 3.006683
v 426.436432 60.244789 107.738251
vn 0.000000 6.283185 0.000000
v 141.923218 85.500786 97.764946
vn -1.359267 -3.597407 3.945236
v 804.237549 33.724781 136.234772
vn 1.062227 -4.019520 -3.457530
v 140.076584 39.747707 29.666752
vn 1.519506 -3.562802 -4.539699
v 51.701622 28.232294 20.551298
vn -0.525425 -6.069620 -0.400244
v 540.909912 55.674747 68.711349
vn 0.688346 -4.979374 -2.441735
v 246.965698 48.818840 47.182510
vn -0.950109 -3.227045 -4.839444
v 781.195923 40.697006 21.481750
vn 1.037750 -4.692807 -2.733763
v 76.743431 20.558414 33.105835
vn 0.326595 -5.967012 -0.934496
v 447.226105 57.129738 73.613861
vn -1.099051 -4.256977 3.380527
v 751.623535 36.922573 122.421837
vn -3.141593 3.141593 -0.000000
v 19.665956 85.500786 119.896805
vn -1.638549 -4.882520 -2.937948
v 841.960388 15.476280 26.296253
vn 0.733801 -4.104535 -3.524738
v 193.614944 50.877342 31.238281
vn 0.274494 2.128203 -2.960930
v 156.905548 85.500786 15.704762
vn 0.283936 2.354357 3.027968
v 52.689880 85.500786 151.247437
vn -0.386065 -4.913424 -3.087158
v 500.864990 64.318420 44.234314
vn 0.000000 6.283186 0.000000
v 71.075203 85.500786 47.873970
vn 0.795108 -2.140903 -5.831862
v 88.471664 51.470879 19.080061
vn 0.000000 6.283185 0.000000
v 526.560547 85.500786 71.400444
vn 0.103820 -6.245883 0.271742
v 489.257202 59.647072 86.941238
vn -2.167336 -2.983665 -0.034638
v 19.665964 2.962703 72.358505
vn 3.141593 3.141593 0.000000
v 867.338806 85.500786 73.453133
vn 0.000000 6.283185 0.000000
v 656.500427 85.500786 95.413727
vn -0.072566 1.161116 2.436179
v 418.852112 85.500786 126.871407
vn -1.284010 -2.514203 -5.260278
v 816.516479 38.664570 15.200638
vn 0.348655 2.317458 3.011010
v 98.996582 85.500786 146.685410
vn -0.279015 1.965667 2.899273
v 624.934448 85.500786 133.233582
vn -0.127233 1.459844 2.650380
v 528.639587 85.500786 128.270081
vn 1.541258 -3.052430 4.985020
v 41.407101 30.413979 137.414200
vn 0.282108 1.885405 2.865099
v 214.106140 85.500786 136.692825
vn 0.000000 6.283185 0.000000
v 99.489838 85.500786 89.872307
vn 0.000000 6.283185 0.000000
v 642.092041 85.500786 56.642395
vn 0.000000 6.283186 0.000000
v 223.452103 85.500786 60.219818
vn 0.000000 6.283185 0.000000
v 686.611755 85.500786 56.969616
vn 0.351367 1.543351 -2.677446
v 246.940445 85.500786 22.754478
vn 0.855412 -2.309814 5.740270
v 119.694992 54.510128 134.961975
vn 1.689958 -5.858796 -1.234584
v 48.420498 14.153528 48.296066
vn 0.280801 1.629064 2.737672
v 305.036987 85.500786 130.705399
vn 1.552671 -5.806576 1.394918
v 45.486492 11.806093 107.582253
vn 0.000000 6.283185 0.000000
v 610.451050 85.500786 91.923126
vn 0.000000 6.283185 0.000000
v 596.669922 85.500786 51.776108
vn 0.000000 6.283185 0.000000
v 564.981689 85.500786 83.917053
vn -0.337965 2.479912 -3.052098
v 781.063538 85.500786 11.060993
vn 0.000000 6.283185 0.000000
v 803.664368 85.500786 103.308632
vn -6.283185 -0.000000 0.000000
v 19.665960 38.227764 42.313694
vn -0.286916 -4.710717 3.383223
v 538.708374 65.380493 116.158203
vn 0.445737 -4.947432 -2.815770
v 306.251892 58.495441 45.646412
vn -0.954156 -5.906693 1.286616
v 647.421204 46.268101 98.166351
vn -0.367501 2.172910 -2.963912
v 745.821228 85.500786 14.286703
vn -0.654329 -6.143433 0.995965
v 591.782715 53.194885 84.327713
vn 0.325490 2.219850 -2.985448
v 107.547714 85.500786 11.150004
vn 0.000000 6.283185 0.000000
v 729.433960 85.500786 55.665310
vn 0.620736 -1.943300 5.912135
v 80.668274 51.323120 140.205765
vn 0.000000 6.283185 0.000000
v 748.587708 85.500786 98.391281
vn 0.490642 -4.149593 3.943356
v 273.635803 64.739441 123.692947
vn 0.100055 1.209837 -2.474610
v 420.780212 85.500786 30.171721
vn 0.771622 -4.164466 4.148128
v 219.286133 61.738472 125.135384
vn 1.131426 -4.130186 3.505639
v 185.666077 50.196346 125.195595
vn 0.721450 -6.119853 0.575718
v 208.408127 45.480087 85.009056
vn -0.770990 -1.011290 -6.151325
v 824.120483 59.908012 10.756493
vn 0.668359 -6.179397 0.564911
v 292.000183 55.130772 82.522530
vn 0.000000 6.283185 0.000000
v 782.473267 85.500786 50.199158
vn 3.141593 3.141593 0.000000
v 867.338806 85.500786 28.888409
vn 6.283185 0.000000 0.000000
v 867.338806 55.322273 36.823353
vn -0.326000 1.882852 -2.858696
v 712.250244 85.500786 17.190102
vn -1.002444 -6.177117 0.350851
v 708.753845 38.280712 83.806358
vn -0.686655 -4.807852 -2.627228
v 642.375916 47.118828 47.351627
vn 0.242665 -4.877805 2.980128
v 334.002686 61.719482 113.270538
vn 0.000000 6.283185 0.000000
v 174.899811 85.500786 57.447575
vn -1.128845 -6.096641 0.798887
v 766.039734 26.996988 85.776726
vn 0.000000 6.283185 0.000000
v 700.317200 85.500786 97.060074
vn -1.174878 -2.677217 5.217477
v 843.352051 30.409542 143.698441
vn 0.000000 6.283185 0.000000
v 239.137878 85.500786 98.388062
vn 1.465835 -6.075555 0.280241
v 75.554199 17.881838 88.603561
vn 1.488217 -6.073439 -0.431421
v 115.649483 26.961042 70.276169
vn 0.080888 -6.274806 -0.054044
v 342.691223 58.876888 72.223808
vn -1.580407 -6.037548 0.250529
v 824.414978 14.159082 76.473007
vn -0.316166 2.672655 -3.090258
v 831.630066 85.500786 6.058061
vn 6.283185 0.000000 0.000000
v 867.338806 42.892075 118.439156
vn 3.141593 3.141593 0.000000
v 867.338806 85.500786 114.087860
vn 0.000000 6.283185 0.000000
v 836.665100 85.500786 62.665329
vn 0.177401 -4.912022 -2.677399
v 347.373108 59.729385 46.055977
vn -0.842325 -4.605390 -2.815920
v 676.510864 43.778248 43.097511
vn -0.734298 -4.501770 3.235682
v 713.713806 42.148731 118.034325
vn 0.000000 6.283185 0.000000
v 282.128265 85.500786 72.868622
vn 0.000000 6.283185 0.000000
v 338.015259 85.500786 56.654770
vn 0.000000 6.283186 0.000000
v 387.934814 85.500786 77.537033
vn 0.000000 6.283185 0.000000
v 338.125488 85.500786 92.589462
vn 0.000000 6.283185 0.000000
v 450.931213 85.500786 70.658371
vn 0.000000 6.283185 0.000000
v 492.831451 85.500786 87.323242
# 151 vertices, 0 vertices normals

f 29//29 46//46 23//23
f 33//33 3//3 11//11
f 38//38 88//88 21//21
f 52//52 57//57 68//68
f 39//39 29//29 31//31
f 35//35 40//40 97//97
f 12//12 13//13 73//73
f 100//100 34//34 90//90
f 40//40 51//51 97//97
f 78//78 54//54 58//58
f 130//130 62//62 50//50
f 64//64 69//69 79//79
f 102//102 103//103 101//101
f 60//60 54//54 106//106
f 43//43 36//36 57//57
f 25//25 107//107 21//21
f 65//65 98//98 17//17
f 25//25 89//89 107//107
f 46//46 29//29 39//39
f 109//109 21//21 111//111
f 35//35 114//114 34//34
f 75//75 74//74 64//64
f 73//73 86//86 12//12
f 76//76 2//2 90//90
f 78//78 92//92 53//53
f 19//19 42//42 22//22
f 119//119 120//120 118//118
f 91//91 119//119 118//118
f 91//91 37//37 119//119
f 94//94 26//26 130//130
f 80//80 89//89 103//103
f 34//34 135//135 35//35
f 11//11 10//10 33//33
f 40//40 35//35 135//135
f 98//98 135//135 82//82
f 75//75 112//112 53//53
f 116//116 56//56 122//122
f 67//67 108//108 122//122
f 59//59 3//3 13//13
f 1//1 124//124 125//125
f 46//46 102//102 8//8
f 126//126 57//57 36//36
f 127//127 109//109 144//144
f 8//8 32//32 128//128
f 129//129 99//99 116//116
f 30//30 19//19 85//85
f 114//114 97//97 87//87
f 89//89 20//20 107//107
f 20//20 89//89 45//45
f 26//26 74//74 75//75
f 23//23 46//46 8//8
f 34//34 114//114 90//90
f 112//112 64//64 79//79
f 38//38 21//21 109//109
f 89//89 25//25 103//103
f 32//32 8//8 93//93
f 37//37 87//87 97//97
f 15//15 82//82 100//100
f 29//29 23//23 66//66
f 28//28 96//96 146//146
f 51//51 37//37 97//97
f 67//67 96//96 28//28
f 96//96 67//67 74//74
f 87//87 37//37 62//62
f 29//29 77//77 31//31
f 70//70 22//22 24//24
f 15//15 100//100 16//16
f 90//90 16//16 100//100
f 69//69 98//98 65//65
f 88//88 7//7 84//84
f 115//115 48//48 105//105
f 15//15 16//16 60//60
f 77//77 24//24 31//31
f 53//53 92//92 62//62
f 9//9 115//115 132//132
f 121//121 104//104 139//139
f 93//93 102//102 101//101
f 101//101 103//103 25//25
f 47//47 105//105 48//48
f 62//62 92//92 87//87
f 7//7 55//55 9//9
f 55//55 7//7 38//38
f 38//38 7//7 88//88
f 98//98 14//14 17//17
f 108//108 28//28 44//44
f 47//47 48//48 63//63
f 35//35 97//97 114//114
f 76//76 114//114 87//87
f 91//91 118//118 27//27
f 112//112 79//79 41//41
f 109//109 55//55 38//38
f 68//68 110//110 104//104
f 85//85 19//19 61//61
f 75//75 130//130 26//26
f 48//48 115//115 9//9
f 112//112 75//75 64//64
f 107//107 111//111 21//21
f 110//110 113//113 123//123
f 106//106 14//14 82//82
f 27//27 116//116 99//99
f 106//106 82//82 60//60
f 106//106 17//17 14//14
f 77//77 66//66 81//81
f 134//134 50//50 91//91
f 56//56 118//118 120//120
f 118//118 56//56 116//116
f 27//27 118//118 116//116
f 37//37 91//91 50//50
f 119//119 37//37 51//51
f 130//130 50//50 94//94
f 51//51 49//49 119//119
f 119//119 49//49 120//120
f 54//54 60//60 72//72
f 49//49 51//51 40//40
f 74//74 67//67 120//120
f 81//81 70//70 77//77
f 81//81 107//107 20//20
f 107//107 81//81 66//66
f 10//10 133//133 33//33
f 102//102 39//39 103//103
f 18//18 5//5 41//41
f 54//54 5//5 106//106
f 135//135 34//34 100//100
f 22//22 117//117 24//24
f 82//82 14//14 98//98
f 130//130 75//75 53//53
f 68//68 57//57 110//110
f 110//110 57//57 126//126
f 121//121 68//68 104//104
f 68//68 121//121 86//86
f 116//116 122//122 129//129
f 123//123 139//139 104//104
f 110//110 123//123 104//104
f 125//125 124//124 83//83
f 59//59 125//125 83//83
f 12//12 125//125 13//13
f 93//93 95//95 32//32
f 55//55 127//127 145//145
f 109//109 127//127 55//55
f 36//36 43//43 127//127
f 32//32 126//126 36//36
f 12//12 1//1 125//125
f 128//128 109//109 111//111
f 10//10 4//4 133//133
f 133//133 47//47 63//63
f 53//53 62//62 130//130
f 30//30 129//129 19//19
f 129//129 30//30 99//99
f 65//65 79//79 69//69
f 70//70 61//61 19//19
f 70//70 19//19 22//22
f 50//50 134//134 94//94
f 29//29 66//66 77//77
f 40//40 135//135 136//136
f 131//131 52//52 138//138
f 91//91 27//27 134//134
f 58//58 76//76 87//87
f 58//58 87//87 92//92
f 132//132 115//115 113//113
f 76//76 58//58 72//72
f 131//131 71//71 127//127
f 94//94 96//96 26//26
f 19//19 137//137 42//42
f 133//133 63//63 33//33
f 125//125 59//59 13//13
f 101//101 25//25 88//88
f 4//4 47//47 133//133
f 46//46 39//39 102//102
f 15//15 60//60 82//82
f 6//6 143//143 44//44
f 76//76 72//72 2//2
f 56//56 120//120 67//67
f 78//78 112//112 41//41
f 138//138 52//52 73//73
f 58//58 54//54 72//72
f 26//26 96//96 74//74
f 102//102 93//93 8//8
f 58//58 92//92 78//78
f 101//101 84//84 93//93
f 84//84 101//101 88//88
f 74//74 120//120 49//49
f 67//67 122//122 56//56
f 7//7 9//9 132//132
f 19//19 129//129 137//137
f 83//83 142//142 141//141
f 40//40 136//136 49//49
f 136//136 135//135 69//69
f 95//95 93//93 84//84
f 108//108 137//137 122//122
f 132//132 95//95 84//84
f 126//126 95//95 113//113
f 137//137 129//129 122//122
f 100//100 82//82 135//135
f 137//137 108//108 143//143
f 126//126 32//32 95//95
f 132//132 113//113 95//95
f 126//126 113//113 110//110
f 123//123 113//113 115//115
f 16//16 90//90 2//2
f 123//123 115//115 105//105
f 76//76 90//90 114//114
f 33//33 138//138 3//3
f 135//135 98//98 69//69
f 43//43 52//52 131//131
f 17//17 106//106 18//18
f 43//43 57//57 52//52
f 13//13 3//3 138//138
f 138//138 73//73 13//13
f 27//27 146//146 134//134
f 99//99 146//146 27//27
f 86//86 121//121 12//12
f 11//11 3//3 140//140
f 10//10 11//11 140//140
f 140//140 3//3 59//59
f 59//59 141//141 140//140
f 10//10 140//140 4//4
f 106//106 5//5 18//18
f 65//65 17//17 18//18
f 65//65 18//18 41//41
f 41//41 79//79 65//65
f 1//1 121//121 139//139
f 69//69 64//64 136//136
f 111//111 66//66 23//23
f 21//21 88//88 25//25
f 22//22 42//42 117//117
f 12//12 121//121 1//1
f 64//64 49//49 136//136
f 139//139 123//123 142//142
f 1//1 139//139 124//124
f 37//37 50//50 62//62
f 52//52 68//68 86//86
f 77//77 70//70 24//24
f 107//107 66//66 111//111
f 45//45 85//85 61//61
f 52//52 86//86 73//73
f 117//117 42//42 6//6
f 78//78 53//53 112//112
f 4//4 141//141 47//47
f 124//124 142//142 83//83
f 64//64 74//74 49//49
f 84//84 7//7 132//132
f 142//142 105//105 141//141
f 47//47 141//141 105//105
f 105//105 142//142 123//123
f 59//59 83//83 141//141
f 141//141 4//4 140//140
f 139//139 142//142 124//124
f 131//131 127//127 43//43
f 28//28 108//108 67//67
f 42//42 143//143 6//6
f 143//143 108//108 44//44
f 137//137 143//143 42//42
f 81//81 61//61 70//70
f 20//20 61//61 81//81
f 94//94 134//134 146//146
f 128//128 32//32 144//144
f 96//96 94//94 146//146
f 23//23 8//8 128//128
f 128//128 111//111 23//23
f 144//144 109//109 128//128
f 144//144 36//36 127//127
f 144//144 32//32 36//36
f 48//48 71//71 63//63
f 71//71 131//131 63//63
f 55//55 145//145 9//9
f 145//145 127//127 71//71
f 63//63 131//131 138//138
f 33//33 63//63 138//138
f 149//149 146//146 99//99
f 28//28 147//147 44//44
f 117//117 6//6 148//148
f 44//44 147//147 6//6
f 149//149 99//99 30//30
f 147//147 146//146 149//149
f 45//45 61//61 20//20
f 117//117 150//150 24//24
f 148//148 150//150 117//117
f 148//148 6//6 147//147
f 148//148 30//30 85//85
f 30//30 148//148 149//149
f 45//45 151//151 150//150
f 151//151 80//80 31//31
f 24//24 150//150 31//31
f 85//85 150//150 148//148
f 45//45 150//150 85//85
f 148//148 147//147 149//149
f 80//80 103//103 39//39
f 31//31 80//80 39//39
f 28//28 146//146 147//147
f 151//151 45//45 89//89
f 80//80 151//151 89//89
f 150//150 151//151 31//31
f 5//5 54//54 78//78
f 41//41 5//5 78//78
f 48//48 9//9 145//145
f 48//48 145//145 71//71
f 72//72 60//60 16//16
f 2//2 72//72 16//16
# 298 faces, 0 coords texture

# End of File
